<svg width="367" height="62" viewBox="0 0 367 62" fill="none" xmlns="http://www.w3.org/2000/svg">
<path d="M5.344 16L8 7.056L10.656 16H12.384L15.6 4.8H14.032L11.472 14.016L8.752 4.8H7.248L4.528 14.016L1.968 4.8H0.4L3.616 16H5.344ZM21.04 7.792C19.872 7.792 19.008 8.24 18.448 9.152V4.8H17.056V16H18.448V11.76C18.448 9.968 19.376 9.12 20.768 9.12C22 9.12 22.752 9.872 22.752 11.168V16H24.144V11.088C24.144 9.056 22.912 7.792 21.04 7.792ZM32.7113 9.376C32.0233 8.32 31.0153 7.792 29.6873 7.792C28.5673 7.792 27.6073 8.208 26.8233 9.024C26.0393 9.84 25.6393 10.832 25.6393 12C25.6393 13.168 26.0393 14.176 26.8233 14.992C27.6073 15.808 28.5673 16.208 29.6873 16.208C31.0153 16.208 32.0233 15.68 32.7113 14.624V16H34.1033V8H32.7113V9.376ZM29.8633 14.864C29.0633 14.864 28.3913 14.592 27.8473 14.048C27.3033 13.488 27.0312 12.816 27.0312 12C27.0312 11.184 27.3033 10.512 27.8473 9.968C28.3913 9.408 29.0633 9.136 29.8633 9.136C30.6793 9.136 31.3513 9.408 31.8953 9.968C32.4393 10.512 32.7113 11.184 32.7113 12C32.7113 12.816 32.4393 13.488 31.8953 14.048C31.3513 14.592 30.6793 14.864 29.8633 14.864ZM40.5643 8H38.4363V5.76L37.0443 6.176V8H35.4603V9.344H37.0443V13.68C37.0443 15.664 38.1323 16.32 40.5643 16V14.752C39.1403 14.816 38.4363 14.912 38.4363 13.68V9.344H40.5643V8ZM43.0216 10.16C43.0216 9.472 43.6616 9.088 44.4456 9.088C45.2936 9.088 45.8696 9.424 46.1576 10.112L47.3256 9.456C46.8136 8.416 45.7416 7.792 44.4456 7.792C43.6296 7.792 42.9576 8.016 42.4136 8.464C41.8856 8.912 41.6136 9.488 41.6136 10.176C41.6136 11.872 43.2456 12.288 44.5096 12.624C45.3896 12.832 46.0936 13.184 46.0936 13.808C46.0936 14.56 45.4216 14.896 44.5096 14.896C43.5336 14.896 42.7816 14.416 42.5256 13.648L41.3256 14.336C41.7896 15.472 42.9576 16.208 44.5096 16.208C45.3896 16.208 46.0936 15.984 46.6536 15.552C47.2136 15.12 47.5016 14.528 47.5016 13.808C47.5176 12.096 45.8536 11.632 44.6056 11.36C43.7256 11.12 43.0216 10.784 43.0216 10.16ZM57.1338 7.792C55.9658 7.792 55.1018 8.24 54.5418 9.152V8H53.1497V16H54.5418V11.76C54.5418 9.968 55.4698 9.12 56.8618 9.12C58.0938 9.12 58.8458 9.872 58.8458 11.168V16H60.2378V11.088C60.2378 9.056 59.0058 7.792 57.1338 7.792ZM69.861 12.64C69.893 12.432 69.909 12.224 69.909 12.016C69.909 10.848 69.541 9.856 68.789 9.04C68.053 8.208 67.093 7.792 65.925 7.792C64.693 7.792 63.685 8.192 62.901 8.992C62.117 9.792 61.733 10.8 61.733 12C61.733 13.216 62.133 14.224 62.917 15.024C63.717 15.808 64.757 16.208 66.021 16.208C67.589 16.208 68.757 15.6 69.541 14.4L68.357 13.728C67.877 14.512 67.109 14.896 66.053 14.896C64.533 14.896 63.429 14.064 63.157 12.64H69.861ZM65.925 9.104C67.205 9.104 68.261 9.904 68.501 11.424H63.157C63.397 10.016 64.437 9.104 65.925 9.104ZM78.8606 14.096L76.9726 8H75.6286L73.7406 14.08L71.9806 8H70.5246L73.0046 16H74.4286L76.3006 10.08L78.1726 16H79.5966L82.0766 8H80.6206L78.8606 14.096ZM87.0493 12.72C87.0493 11.552 88.1213 10.736 88.9533 9.904C89.5293 9.328 89.9933 8.512 89.9933 7.616C89.9933 6.672 89.6573 5.92 88.9693 5.392C88.2973 4.864 87.4813 4.592 86.5373 4.592C84.9213 4.592 83.5293 5.392 83.0013 6.88L84.2653 7.584C84.6013 6.544 85.3533 6.032 86.5213 6.032C87.6893 6.032 88.5053 6.608 88.5053 7.68C88.5053 8.784 87.4333 9.536 86.6013 10.368C86.0253 10.944 85.5613 11.776 85.5613 12.72H87.0493ZM86.2973 16.176C86.8893 16.176 87.3373 15.712 87.3373 15.136C87.3373 14.56 86.8893 14.096 86.2973 14.096C85.7213 14.096 85.2573 14.56 85.2573 15.136C85.2573 15.712 85.7213 16.176 86.2973 16.176Z" fill="black"/>
<path d="M0.312 34.2V37.368H4.824V51H8.136V37.368H12.672V34.2H0.312ZM21.3173 40.416C20.3813 39.24 19.0853 38.664 17.4053 38.664C15.7973 38.664 14.4293 39.288 13.2773 40.512C12.1493 41.736 11.5732 43.224 11.5732 45C11.5732 46.776 12.1493 48.288 13.2773 49.512C14.4293 50.736 15.7973 51.336 17.4053 51.336C19.0853 51.336 20.3813 50.76 21.3173 49.584V51H24.4133V39H21.3173V40.416ZM15.6053 47.448C14.9813 46.8 14.6693 45.984 14.6693 45C14.6693 44.016 14.9813 43.2 15.6053 42.576C16.2293 41.928 17.0213 41.616 17.9813 41.616C18.9413 41.616 19.7333 41.928 20.3573 42.576C21.0053 43.2 21.3173 44.016 21.3173 45C21.3173 45.984 21.0053 46.8 20.3573 47.448C19.7333 48.072 18.9413 48.384 17.9813 48.384C17.0213 48.384 16.2293 48.072 15.6053 47.448ZM33.3167 44.928L38.1407 39H34.4447L30.3167 44.28V34.2H27.2207V51H30.3167V45.552L34.6847 51H38.2847L33.3167 44.928ZM51.4941 46.272C51.5661 45.816 51.6141 45.408 51.6141 45C51.6141 43.2 51.0381 41.712 49.8861 40.488C48.7581 39.264 47.2941 38.664 45.5421 38.664C43.6941 38.664 42.1581 39.264 40.9821 40.488C39.8061 41.688 39.2061 43.2 39.2061 45C39.2061 46.824 39.8061 48.336 41.0061 49.536C42.2061 50.736 43.7901 51.336 45.7821 51.336C48.0861 51.336 49.8381 50.472 51.0141 48.768L48.5181 47.328C47.9181 48.12 47.0061 48.528 45.8301 48.528C43.9821 48.528 42.8541 47.784 42.4461 46.272H51.4941ZM42.3981 43.872C42.7581 42.336 43.8861 41.448 45.5421 41.448C46.9581 41.448 48.1581 42.24 48.5181 43.872H42.3981ZM74.3194 51L68.4154 34.2H64.3114L58.4314 51H62.0074L63.0154 47.976H69.7114L70.7194 51H74.3194ZM66.3754 38.016L68.6794 44.88H64.0714L66.3754 38.016ZM85.2626 34.2H81.9506V51H91.6706V47.832H85.2626V34.2ZM103.632 49.512C104.856 48.288 105.48 46.776 105.48 45C105.48 43.224 104.856 41.736 103.632 40.512C102.408 39.288 100.896 38.664 99.1202 38.664C97.3442 38.664 95.8322 39.288 94.6082 40.512C93.3842 41.736 92.7842 43.224 92.7842 45C92.7842 46.776 93.3842 48.288 94.6082 49.512C95.8322 50.736 97.3442 51.336 99.1202 51.336C100.896 51.336 102.408 50.736 103.632 49.512ZM96.7922 47.376C96.1922 46.752 95.8802 45.96 95.8802 45C95.8802 44.04 96.1922 43.248 96.7922 42.624C97.4162 42 98.1842 41.688 99.1202 41.688C100.056 41.688 100.824 42 101.448 42.624C102.072 43.248 102.384 44.04 102.384 45C102.384 45.96 102.072 46.752 101.448 47.376C100.824 48 100.056 48.312 99.1202 48.312C98.1842 48.312 97.4162 48 96.7922 47.376ZM117.882 49.512C119.106 48.288 119.73 46.776 119.73 45C119.73 43.224 119.106 41.736 117.882 40.512C116.658 39.288 115.146 38.664 113.37 38.664C111.594 38.664 110.082 39.288 108.858 40.512C107.634 41.736 107.034 43.224 107.034 45C107.034 46.776 107.634 48.288 108.858 49.512C110.082 50.736 111.594 51.336 113.37 51.336C115.146 51.336 116.658 50.736 117.882 49.512ZM111.042 47.376C110.442 46.752 110.13 45.96 110.13 45C110.13 44.04 110.442 43.248 111.042 42.624C111.666 42 112.434 41.688 113.37 41.688C114.306 41.688 115.074 42 115.698 42.624C116.322 43.248 116.634 44.04 116.634 45C116.634 45.96 116.322 46.752 115.698 47.376C115.074 48 114.306 48.312 113.37 48.312C112.434 48.312 111.666 48 111.042 47.376ZM128.004 44.928L132.828 39H129.132L125.004 44.28V34.2H121.908V51H125.004V45.552L129.372 51H132.972L128.004 44.928ZM155.062 51L149.158 34.2H145.054L139.174 51H142.75L143.758 47.976H150.454L151.462 51H155.062ZM147.118 38.016L149.422 44.88H144.814L147.118 38.016ZM162.944 39H160.232V35.64L157.136 36.576V39H155.048V41.976H157.136V46.968C157.136 50.256 158.696 51.48 162.944 51V48.192C161.168 48.288 160.232 48.264 160.232 46.968V41.976H162.944V39ZM177.194 51.336C178.994 51.336 180.458 50.88 181.586 49.968C182.714 49.056 183.29 47.832 183.29 46.272C183.29 45.312 183.026 44.472 182.666 43.896C182.354 43.32 181.586 42.72 181.082 42.408C180.842 42.24 180.482 42.072 180.026 41.904C179.57 41.712 179.21 41.568 178.946 41.496L177.794 41.112C176.546 40.728 175.706 40.368 175.25 40.056C174.818 39.72 174.602 39.288 174.602 38.76C174.602 37.776 175.442 37.08 176.81 37.08C178.274 37.08 179.354 37.8 180.026 39.24L182.81 37.632C181.658 35.256 179.522 33.864 176.81 33.864C175.298 33.864 173.978 34.32 172.898 35.232C171.818 36.12 171.29 37.344 171.29 38.856C171.29 40.392 171.842 41.544 172.874 42.312C173.93 43.056 174.842 43.416 176.354 43.872C177.722 44.256 178.658 44.616 179.186 44.952C179.714 45.264 179.978 45.72 179.978 46.32C179.978 47.352 179.138 48.096 177.29 48.096C175.37 48.096 174.074 47.232 173.426 45.528L170.594 47.184C171.53 49.752 173.858 51.336 177.194 51.336ZM195.531 49.512C196.755 48.288 197.379 46.776 197.379 45C197.379 43.224 196.755 41.736 195.531 40.512C194.307 39.288 192.795 38.664 191.019 38.664C189.243 38.664 187.731 39.288 186.507 40.512C185.283 41.736 184.683 43.224 184.683 45C184.683 46.776 185.283 48.288 186.507 49.512C187.731 50.736 189.243 51.336 191.019 51.336C192.795 51.336 194.307 50.736 195.531 49.512ZM188.691 47.376C188.091 46.752 187.779 45.96 187.779 45C187.779 44.04 188.091 43.248 188.691 42.624C189.315 42 190.083 41.688 191.019 41.688C191.955 41.688 192.723 42 193.347 42.624C193.971 43.248 194.283 44.04 194.283 45C194.283 45.96 193.971 46.752 193.347 47.376C192.723 48 191.955 48.312 191.019 48.312C190.083 48.312 189.315 48 188.691 47.376ZM212.829 38.664C211.245 38.664 210.045 39.24 209.253 40.392C208.557 39.24 207.453 38.664 205.989 38.664C204.477 38.664 203.373 39.192 202.653 40.272V39H199.557V51H202.653V44.256C202.653 42.504 203.541 41.544 204.909 41.544C206.181 41.544 206.925 42.384 206.925 43.824V51H210.021V44.256C210.021 42.504 210.837 41.544 212.253 41.544C213.525 41.544 214.269 42.384 214.269 43.824V51H217.365V43.608C217.365 40.608 215.589 38.664 212.829 38.664ZM231.658 46.272C231.73 45.816 231.778 45.408 231.778 45C231.778 43.2 231.202 41.712 230.05 40.488C228.922 39.264 227.458 38.664 225.706 38.664C223.858 38.664 222.322 39.264 221.146 40.488C219.97 41.688 219.37 43.2 219.37 45C219.37 46.824 219.97 48.336 221.17 49.536C222.37 50.736 223.954 51.336 225.946 51.336C228.25 51.336 230.002 50.472 231.178 48.768L228.682 47.328C228.082 48.12 227.17 48.528 225.994 48.528C224.146 48.528 223.018 47.784 222.61 46.272H231.658ZM222.562 43.872C222.922 42.336 224.05 41.448 225.706 41.448C227.122 41.448 228.322 42.24 228.682 43.872H222.562ZM254.219 48.816C255.923 47.112 256.763 45.048 256.763 42.6C256.763 40.152 255.923 38.088 254.219 36.408C252.515 34.704 250.451 33.864 248.027 33.864C245.603 33.864 243.539 34.704 241.835 36.408C240.155 38.088 239.315 40.152 239.315 42.6C239.315 45.048 240.155 47.112 241.835 48.816C243.539 50.496 245.603 51.336 248.027 51.336C250.451 51.336 252.515 50.496 254.219 48.816ZM244.163 46.56C243.131 45.528 242.603 44.208 242.603 42.6C242.603 40.992 243.131 39.672 244.163 38.64C245.195 37.608 246.491 37.08 248.027 37.08C249.563 37.08 250.859 37.608 251.891 38.64C252.923 39.672 253.451 40.992 253.451 42.6C253.451 44.208 252.923 45.528 251.891 46.56C250.859 47.592 249.563 48.096 248.027 48.096C246.491 48.096 245.195 47.592 244.163 46.56ZM265.403 33.864C261.659 33.648 259.763 35.496 259.763 38.88V39H258.035V41.976H259.763V51H262.859V41.976H265.403V39H262.859V38.88C262.859 37.392 263.699 36.72 265.403 36.84V33.864ZM287.102 48.816C288.806 47.112 289.646 45.048 289.646 42.6C289.646 40.152 288.806 38.088 287.102 36.408C285.398 34.704 283.334 33.864 280.91 33.864C278.486 33.864 276.422 34.704 274.718 36.408C273.038 38.088 272.198 40.152 272.198 42.6C272.198 45.048 273.038 47.112 274.718 48.816C276.422 50.496 278.486 51.336 280.91 51.336C283.334 51.336 285.398 50.496 287.102 48.816ZM277.046 46.56C276.014 45.528 275.486 44.208 275.486 42.6C275.486 40.992 276.014 39.672 277.046 38.64C278.078 37.608 279.374 37.08 280.91 37.08C282.446 37.08 283.742 37.608 284.774 38.64C285.806 39.672 286.334 40.992 286.334 42.6C286.334 44.208 285.806 45.528 284.774 46.56C283.742 47.592 282.446 48.096 280.91 48.096C279.374 48.096 278.078 47.592 277.046 46.56ZM299.75 45.48C299.75 47.472 298.718 48.456 297.11 48.456C295.67 48.456 294.734 47.592 294.734 45.984V39H291.638V46.368C291.638 47.928 292.07 49.128 292.91 50.016C293.774 50.904 294.854 51.336 296.174 51.336C297.806 51.336 299.006 50.784 299.75 49.656V51H302.846V39H299.75V45.48ZM308.778 39H305.682V51H308.778V45.264C308.778 44.112 309.138 43.296 309.882 42.792C310.626 42.288 311.49 42.096 312.426 42.216V38.76C310.794 38.76 309.354 39.528 308.778 41.064V39ZM320.38 34.2V51H323.692V45.48H326.644C328.252 45.48 329.62 44.928 330.724 43.848C331.828 42.768 332.38 41.424 332.38 39.84C332.38 38.256 331.828 36.912 330.724 35.832C329.62 34.752 328.252 34.2 326.644 34.2H320.38ZM323.692 42.384V37.296H326.644C328.06 37.296 329.092 38.376 329.092 39.84C329.092 41.28 328.06 42.384 326.644 42.384H323.692ZM346.057 46.272C346.129 45.816 346.177 45.408 346.177 45C346.177 43.2 345.601 41.712 344.449 40.488C343.321 39.264 341.857 38.664 340.105 38.664C338.257 38.664 336.721 39.264 335.545 40.488C334.369 41.688 333.769 43.2 333.769 45C333.769 46.824 334.369 48.336 335.569 49.536C336.769 50.736 338.353 51.336 340.345 51.336C342.649 51.336 344.401 50.472 345.577 48.768L343.081 47.328C342.481 48.12 341.569 48.528 340.393 48.528C338.545 48.528 337.417 47.784 337.009 46.272H346.057ZM336.961 43.872C337.321 42.336 338.449 41.448 340.105 41.448C341.521 41.448 342.721 42.24 343.081 43.872H336.961ZM354.85 39H352.138V35.64L349.042 36.576V39H346.954V41.976H349.042V46.968C349.042 50.256 350.602 51.48 354.85 51V48.192C353.074 48.288 352.138 48.264 352.138 46.968V41.976H354.85V39ZM359.631 42.408C359.631 41.808 360.231 41.424 361.023 41.424C361.911 41.424 362.559 41.832 362.943 42.648L365.583 41.208C364.647 39.576 362.967 38.664 361.023 38.664C359.727 38.664 358.647 39 357.759 39.696C356.895 40.368 356.463 41.304 356.463 42.48C356.463 44.976 358.695 45.72 360.471 46.176C361.695 46.488 362.655 46.848 362.655 47.496C362.655 48.192 362.103 48.528 360.999 48.528C359.775 48.528 359.007 48 358.647 46.968L355.959 48.48C356.847 50.376 358.527 51.336 360.999 51.336C362.367 51.336 363.519 51 364.431 50.352C365.367 49.68 365.823 48.72 365.823 47.496C365.847 44.928 363.567 44.088 361.815 43.728C360.591 43.416 359.631 43.056 359.631 42.408Z" fill="#003459"/>
</svg>
