<svg width="242" height="62" viewBox="0 0 242 62" fill="none" xmlns="http://www.w3.org/2000/svg">
<path d="M7.872 4.8L4.832 10.048L1.792 4.8H0.128L4.08 11.456V16H5.568V11.472L9.536 4.8H7.872ZM17.4643 14.992C18.2803 14.176 18.6962 13.184 18.6962 12C18.6962 10.816 18.2803 9.824 17.4643 9.008C16.6483 8.192 15.6403 7.792 14.4723 7.792C13.3043 7.792 12.2963 8.192 11.4803 9.008C10.6643 9.824 10.2643 10.816 10.2643 12C10.2643 13.184 10.6643 14.176 11.4803 14.992C12.2963 15.808 13.3043 16.208 14.4723 16.208C15.6403 16.208 16.6483 15.808 17.4643 14.992ZM14.4723 14.848C13.6883 14.848 13.0163 14.576 12.4723 14.032C11.9283 13.488 11.6562 12.816 11.6562 12C11.6562 11.184 11.9283 10.512 12.4723 9.968C13.0163 9.424 13.6883 9.152 14.4723 9.152C15.2723 9.152 15.9443 9.424 16.4883 9.968C17.0323 10.512 17.3043 11.184 17.3043 12C17.3043 12.816 17.0323 13.488 16.4883 14.032C15.9443 14.576 15.2723 14.848 14.4723 14.848ZM25.8573 12.24C25.8573 14.032 24.9293 14.88 23.5373 14.88C22.3053 14.88 21.5533 14.128 21.5533 12.832V8H20.1613V12.912C20.1613 14.944 21.3932 16.208 23.2653 16.208C24.4333 16.208 25.2973 15.76 25.8573 14.848V16H27.2493V8H25.8573V12.24ZM39.9925 9.376C39.3045 8.32 38.2965 7.792 36.9685 7.792C35.8485 7.792 34.8885 8.208 34.1045 9.024C33.3205 9.84 32.9205 10.832 32.9205 12C32.9205 13.168 33.3205 14.176 34.1045 14.992C34.8885 15.808 35.8485 16.208 36.9685 16.208C38.2965 16.208 39.3045 15.68 39.9925 14.624V16H41.3845V8H39.9925V9.376ZM37.1445 14.864C36.3445 14.864 35.6725 14.592 35.1285 14.048C34.5845 13.488 34.3125 12.816 34.3125 12C34.3125 11.184 34.5845 10.512 35.1285 9.968C35.6725 9.408 36.3445 9.136 37.1445 9.136C37.9605 9.136 38.6325 9.408 39.1765 9.968C39.7205 10.512 39.9925 11.184 39.9925 12C39.9925 12.816 39.7205 13.488 39.1765 14.048C38.6325 14.592 37.9605 14.864 37.1445 14.864ZM44.8855 16V4.32H43.4935V16H44.8855ZM48.4011 8H47.0091V16H48.4011V11.76C48.4011 10.88 48.6411 10.256 49.1371 9.856C49.6331 9.456 50.2091 9.28 50.8971 9.312V7.856C49.6971 7.856 48.8651 8.352 48.4011 9.344V8ZM59.9391 12.64C59.9711 12.432 59.9871 12.224 59.9871 12.016C59.9871 10.848 59.6191 9.856 58.8671 9.04C58.1311 8.208 57.1711 7.792 56.0031 7.792C54.7711 7.792 53.7631 8.192 52.9791 8.992C52.1951 9.792 51.8111 10.8 51.8111 12C51.8111 13.216 52.2111 14.224 52.9951 15.024C53.7951 15.808 54.8351 16.208 56.0991 16.208C57.6671 16.208 58.8351 15.6 59.6191 14.4L58.4351 13.728C57.9551 14.512 57.1871 14.896 56.1311 14.896C54.6111 14.896 53.5071 14.064 53.2351 12.64H59.9391ZM56.0031 9.104C57.2831 9.104 58.3391 9.904 58.5791 11.424H53.2351C53.4751 10.016 54.5151 9.104 56.0031 9.104ZM68.1956 9.376C67.5076 8.32 66.4996 7.792 65.1716 7.792C64.0516 7.792 63.0916 8.208 62.3076 9.024C61.5236 9.84 61.1236 10.832 61.1236 12C61.1236 13.168 61.5236 14.176 62.3076 14.992C63.0916 15.808 64.0516 16.208 65.1716 16.208C66.4996 16.208 67.5076 15.68 68.1956 14.624V16H69.5876V8H68.1956V9.376ZM65.3476 14.864C64.5476 14.864 63.8756 14.592 63.3316 14.048C62.7876 13.488 62.5156 12.816 62.5156 12C62.5156 11.184 62.7876 10.512 63.3316 9.968C63.8756 9.408 64.5476 9.136 65.3476 9.136C66.1636 9.136 66.8356 9.408 67.3796 9.968C67.9236 10.512 68.1956 11.184 68.1956 12C68.1956 12.816 67.9236 13.488 67.3796 14.048C66.8356 14.592 66.1636 14.864 65.3476 14.864ZM78.3206 9.376C77.6326 8.32 76.6246 7.792 75.2966 7.792C74.1766 7.792 73.2166 8.208 72.4326 9.024C71.6486 9.84 71.2486 10.832 71.2486 12C71.2486 13.168 71.6486 14.176 72.4326 14.992C73.2166 15.808 74.1766 16.208 75.2966 16.208C76.6246 16.208 77.6326 15.68 78.3206 14.624V16H79.7126V4.8H78.3206V9.376ZM75.4726 14.864C74.6726 14.864 74.0006 14.592 73.4566 14.048C72.9126 13.488 72.6406 12.816 72.6406 12C72.6406 11.184 72.9126 10.512 73.4566 9.968C74.0006 9.408 74.6726 9.136 75.4726 9.136C76.2886 9.136 76.9606 9.408 77.5046 9.968C78.0486 10.512 78.3206 11.184 78.3206 12C78.3206 12.816 78.0486 13.488 77.5046 14.048C76.9606 14.592 76.2886 14.864 75.4726 14.864ZM85.1016 14.272L82.3816 8H80.8936L84.3816 15.968L84.2376 16.272C83.7736 17.44 83.0536 17.984 82.0776 17.904V19.2C83.6776 19.312 84.9416 18.304 85.6296 16.496L88.8936 8H87.4056L85.1016 14.272ZM96.872 11.872L100.696 8H98.904L95.448 11.536V4.8H94.056V16H95.448V12.208L99.096 16H100.824L96.872 11.872ZM106.103 7.792C104.935 7.792 104.071 8.24 103.511 9.152V8H102.118V16H103.511V11.76C103.511 9.968 104.439 9.12 105.831 9.12C107.063 9.12 107.815 9.872 107.815 11.168V16H109.207V11.088C109.207 9.056 107.975 7.792 106.103 7.792ZM117.902 14.992C118.718 14.176 119.134 13.184 119.134 12C119.134 10.816 118.718 9.824 117.902 9.008C117.086 8.192 116.078 7.792 114.91 7.792C113.742 7.792 112.734 8.192 111.918 9.008C111.102 9.824 110.702 10.816 110.702 12C110.702 13.184 111.102 14.176 111.918 14.992C112.734 15.808 113.742 16.208 114.91 16.208C116.078 16.208 117.086 15.808 117.902 14.992ZM114.91 14.848C114.126 14.848 113.454 14.576 112.91 14.032C112.366 13.488 112.094 12.816 112.094 12C112.094 11.184 112.366 10.512 112.91 9.968C113.454 9.424 114.126 9.152 114.91 9.152C115.71 9.152 116.382 9.424 116.926 9.968C117.47 10.512 117.742 11.184 117.742 12C117.742 12.816 117.47 13.488 116.926 14.032C116.382 14.576 115.71 14.848 114.91 14.848ZM128.126 14.096L126.238 8H124.894L123.006 14.08L121.246 8H119.79L122.27 16H123.694L125.566 10.08L127.438 16H128.862L131.342 8H129.886L128.126 14.096ZM140.487 12.72C140.487 11.552 141.559 10.736 142.391 9.904C142.967 9.328 143.431 8.512 143.431 7.616C143.431 6.672 143.095 5.92 142.407 5.392C141.735 4.864 140.919 4.592 139.975 4.592C138.359 4.592 136.967 5.392 136.439 6.88L137.703 7.584C138.039 6.544 138.791 6.032 139.959 6.032C141.127 6.032 141.943 6.608 141.943 7.68C141.943 8.784 140.871 9.536 140.039 10.368C139.463 10.944 138.999 11.776 138.999 12.72H140.487ZM139.735 16.176C140.327 16.176 140.775 15.712 140.775 15.136C140.775 14.56 140.327 14.096 139.735 14.096C139.159 14.096 138.695 14.56 138.695 15.136C138.695 15.712 139.159 16.176 139.735 16.176Z" fill="black"/>
<path d="M7.824 51.336C9.72 51.336 11.256 50.808 12.456 49.752C13.656 48.696 14.256 47.28 14.256 45.504V34.2H10.944V45.24C10.944 46.992 9.96 48.096 7.824 48.096C5.688 48.096 4.704 46.992 4.704 45.24V34.2H1.416V45.504C1.416 47.28 2.016 48.696 3.216 49.752C4.416 50.808 5.952 51.336 7.824 51.336ZM19.8345 42.408C19.8345 41.808 20.4345 41.424 21.2265 41.424C22.1145 41.424 22.7625 41.832 23.1465 42.648L25.7865 41.208C24.8505 39.576 23.1705 38.664 21.2265 38.664C19.9305 38.664 18.8505 39 17.9625 39.696C17.0985 40.368 16.6665 41.304 16.6665 42.48C16.6665 44.976 18.8985 45.72 20.6745 46.176C21.8985 46.488 22.8585 46.848 22.8585 47.496C22.8585 48.192 22.3065 48.528 21.2025 48.528C19.9785 48.528 19.2105 48 18.8505 46.968L16.1625 48.48C17.0505 50.376 18.7305 51.336 21.2025 51.336C22.5705 51.336 23.7225 51 24.6345 50.352C25.5705 49.68 26.0265 48.72 26.0265 47.496C26.0505 44.928 23.7705 44.088 22.0185 43.728C20.7945 43.416 19.8345 43.056 19.8345 42.408ZM39.7988 46.272C39.8708 45.816 39.9188 45.408 39.9188 45C39.9188 43.2 39.3428 41.712 38.1908 40.488C37.0628 39.264 35.5988 38.664 33.8468 38.664C31.9988 38.664 30.4628 39.264 29.2868 40.488C28.1108 41.688 27.5107 43.2 27.5107 45C27.5107 46.824 28.1108 48.336 29.3108 49.536C30.5108 50.736 32.0948 51.336 34.0868 51.336C36.3908 51.336 38.1428 50.472 39.3188 48.768L36.8228 47.328C36.2228 48.12 35.3108 48.528 34.1348 48.528C32.2868 48.528 31.1588 47.784 30.7508 46.272H39.7988ZM30.7028 43.872C31.0628 42.336 32.1908 41.448 33.8468 41.448C35.2628 41.448 36.4628 42.24 36.8228 43.872H30.7028ZM48.1845 33.864C44.4405 33.648 42.5445 35.496 42.5445 38.88V39H40.8165V41.976H42.5445V51H45.6405V41.976H48.1845V39H45.6405V38.88C45.6405 37.392 46.4805 36.72 48.1845 36.84V33.864ZM57.5235 45.48C57.5235 47.472 56.4915 48.456 54.8835 48.456C53.4435 48.456 52.5075 47.592 52.5075 45.984V39H49.4115V46.368C49.4115 47.928 49.8435 49.128 50.6835 50.016C51.5475 50.904 52.6275 51.336 53.9475 51.336C55.5795 51.336 56.7795 50.784 57.5235 49.656V51H60.6195V39H57.5235V45.48ZM66.5511 51V33.48H63.4551V51H66.5511ZM75.5288 34.2V51H78.8408V45.48H81.7928C83.4008 45.48 84.7688 44.928 85.8728 43.848C86.9768 42.768 87.5287 41.424 87.5287 39.84C87.5287 38.256 86.9768 36.912 85.8728 35.832C84.7688 34.752 83.4008 34.2 81.7928 34.2H75.5288ZM78.8408 42.384V37.296H81.7928C83.2088 37.296 84.2408 38.376 84.2408 39.84C84.2408 41.28 83.2088 42.384 81.7928 42.384H78.8408ZM101.205 46.272C101.277 45.816 101.325 45.408 101.325 45C101.325 43.2 100.749 41.712 99.597 40.488C98.469 39.264 97.005 38.664 95.253 38.664C93.405 38.664 91.869 39.264 90.693 40.488C89.517 41.688 88.917 43.2 88.917 45C88.917 46.824 89.517 48.336 90.717 49.536C91.917 50.736 93.501 51.336 95.493 51.336C97.797 51.336 99.549 50.472 100.725 48.768L98.229 47.328C97.629 48.12 96.717 48.528 95.541 48.528C93.693 48.528 92.565 47.784 92.157 46.272H101.205ZM92.109 43.872C92.469 42.336 93.597 41.448 95.253 41.448C96.669 41.448 97.869 42.24 98.229 43.872H92.109ZM109.999 39H107.287V35.64L104.191 36.576V39H102.103V41.976H104.191V46.968C104.191 50.256 105.751 51.48 109.999 51V48.192C108.223 48.288 107.287 48.264 107.287 46.968V41.976H109.999V39ZM125.185 42.36L131.401 34.2H127.585L121.825 41.616V34.2H118.513V51H121.825V43.128L127.825 51H131.641L125.185 42.36ZM139.807 38.664C138.175 38.664 136.975 39.216 136.231 40.344V39H133.135V51H136.231V44.52C136.231 42.528 137.263 41.544 138.871 41.544C140.311 41.544 141.247 42.408 141.247 44.016V51H144.343V43.632C144.343 42.072 143.911 40.872 143.047 39.984C142.207 39.096 141.127 38.664 139.807 38.664ZM157.21 49.512C158.434 48.288 159.058 46.776 159.058 45C159.058 43.224 158.434 41.736 157.21 40.512C155.986 39.288 154.474 38.664 152.698 38.664C150.922 38.664 149.41 39.288 148.186 40.512C146.962 41.736 146.362 43.224 146.362 45C146.362 46.776 146.962 48.288 148.186 49.512C149.41 50.736 150.922 51.336 152.698 51.336C154.474 51.336 155.986 50.736 157.21 49.512ZM150.37 47.376C149.77 46.752 149.458 45.96 149.458 45C149.458 44.04 149.77 43.248 150.37 42.624C150.994 42 151.762 41.688 152.698 41.688C153.634 41.688 154.402 42 155.026 42.624C155.65 43.248 155.962 44.04 155.962 45C155.962 45.96 155.65 46.752 155.026 47.376C154.402 48 153.634 48.312 152.698 48.312C151.762 48.312 150.994 48 150.37 47.376ZM172.24 46.392L170.056 39H167.128L164.944 46.368L162.904 39H159.616L163.432 51H166.384L168.592 43.728L170.8 51H173.752L177.568 39H174.28L172.24 46.392ZM182.332 51V33.48H179.236V51H182.332ZM196.83 46.272C196.902 45.816 196.95 45.408 196.95 45C196.95 43.2 196.374 41.712 195.222 40.488C194.094 39.264 192.63 38.664 190.878 38.664C189.03 38.664 187.494 39.264 186.318 40.488C185.142 41.688 184.542 43.2 184.542 45C184.542 46.824 185.142 48.336 186.342 49.536C187.542 50.736 189.126 51.336 191.118 51.336C193.422 51.336 195.174 50.472 196.35 48.768L193.854 47.328C193.254 48.12 192.342 48.528 191.166 48.528C189.318 48.528 188.19 47.784 187.782 46.272H196.83ZM187.734 43.872C188.094 42.336 189.222 41.448 190.878 41.448C192.294 41.448 193.494 42.24 193.854 43.872H187.734ZM208.207 40.416C207.295 39.24 205.999 38.664 204.319 38.664C202.711 38.664 201.319 39.288 200.167 40.512C199.039 41.736 198.463 43.224 198.463 45C198.463 46.776 199.039 48.288 200.167 49.512C201.319 50.736 202.711 51.336 204.319 51.336C205.999 51.336 207.295 50.76 208.207 49.584V51H211.303V34.2H208.207V40.416ZM202.495 47.448C201.871 46.8 201.559 45.984 201.559 45C201.559 44.016 201.871 43.2 202.495 42.576C203.143 41.928 203.935 41.616 204.895 41.616C205.855 41.616 206.647 41.928 207.271 42.576C207.895 43.2 208.207 44.016 208.207 45C208.207 45.984 207.895 46.8 207.271 47.448C206.647 48.072 205.855 48.384 204.895 48.384C203.935 48.384 203.143 48.072 202.495 47.448ZM223.327 40.488C222.415 39.264 221.143 38.664 219.487 38.664C217.807 38.664 216.391 39.264 215.239 40.464C214.087 41.664 213.511 43.104 213.511 44.808C213.511 46.512 214.087 47.976 215.215 49.176C216.367 50.352 217.783 50.952 219.487 50.952C221.143 50.952 222.415 50.352 223.327 49.128V50.424C223.327 52.32 222.127 53.376 220.183 53.376C218.695 53.376 217.639 52.824 217.039 51.696L214.399 53.208C215.455 55.128 217.495 56.136 220.087 56.136C221.815 56.136 223.279 55.656 224.503 54.672C225.727 53.688 226.351 52.272 226.351 50.424V39H223.327V40.488ZM223.327 44.808C223.327 46.728 221.911 48.096 219.967 48.096C218.023 48.096 216.607 46.728 216.607 44.808C216.607 43.872 216.919 43.08 217.543 42.48C218.191 41.856 218.983 41.544 219.967 41.544C220.951 41.544 221.743 41.856 222.367 42.48C223.015 43.08 223.327 43.872 223.327 44.808ZM240.822 46.272C240.894 45.816 240.942 45.408 240.942 45C240.942 43.2 240.366 41.712 239.214 40.488C238.086 39.264 236.622 38.664 234.87 38.664C233.022 38.664 231.486 39.264 230.31 40.488C229.134 41.688 228.534 43.2 228.534 45C228.534 46.824 229.134 48.336 230.334 49.536C231.534 50.736 233.118 51.336 235.11 51.336C237.414 51.336 239.166 50.472 240.342 48.768L237.846 47.328C237.246 48.12 236.334 48.528 235.158 48.528C233.31 48.528 232.182 47.784 231.774 46.272H240.822ZM231.726 43.872C232.086 42.336 233.214 41.448 234.87 41.448C236.286 41.448 237.486 42.24 237.846 43.872H231.726Z" fill="#003459"/>
</svg>
