<svg width="326" height="62" viewBox="0 0 326 62" fill="none" xmlns="http://www.w3.org/2000/svg">
<path d="M8.128 9.552H2.688V4.8H1.2V16H2.688V10.96H8.128V16H9.6V4.8H8.128V9.552ZM18.4769 9.376C17.7889 8.32 16.7809 7.792 15.4529 7.792C14.3329 7.792 13.3729 8.208 12.5889 9.024C11.8049 9.84 11.4049 10.832 11.4049 12C11.4049 13.168 11.8049 14.176 12.5889 14.992C13.3729 15.808 14.3329 16.208 15.4529 16.208C16.7809 16.208 17.7889 15.68 18.4769 14.624V16H19.8689V8H18.4769V9.376ZM15.6289 14.864C14.8289 14.864 14.1569 14.592 13.6129 14.048C13.0689 13.488 12.7969 12.816 12.7969 12C12.7969 11.184 13.0689 10.512 13.6129 9.968C14.1569 9.408 14.8289 9.136 15.6289 9.136C16.4449 9.136 17.1169 9.408 17.6609 9.968C18.2049 10.512 18.4769 11.184 18.4769 12C18.4769 12.816 18.2049 13.488 17.6609 14.048C17.1169 14.592 16.4449 14.864 15.6289 14.864ZM23.3699 8H21.9779V16H23.3699V11.76C23.3699 10.88 23.6099 10.256 24.1059 9.856C24.6019 9.456 25.1779 9.28 25.8659 9.312V7.856C24.6659 7.856 23.8339 8.352 23.3699 9.344V8ZM33.8519 9.376C33.1639 8.32 32.1559 7.792 30.8279 7.792C29.7079 7.792 28.7479 8.208 27.9639 9.024C27.1799 9.84 26.7799 10.832 26.7799 12C26.7799 13.168 27.1799 14.176 27.9639 14.992C28.7479 15.808 29.7079 16.208 30.8279 16.208C32.1559 16.208 33.1639 15.68 33.8519 14.624V16H35.2439V4.8H33.8519V9.376ZM31.0039 14.864C30.2039 14.864 29.5319 14.592 28.9879 14.048C28.4439 13.488 28.1719 12.816 28.1719 12C28.1719 11.184 28.4439 10.512 28.9879 9.968C29.5319 9.408 30.2039 9.136 31.0039 9.136C31.8199 9.136 32.4919 9.408 33.0359 9.968C33.5799 10.512 33.8519 11.184 33.8519 12C33.8519 12.816 33.5799 13.488 33.0359 14.048C32.4919 14.592 31.8199 14.864 31.0039 14.864ZM45.7049 8H43.5769V5.76L42.1849 6.176V8H40.6009V9.344H42.1849V13.68C42.1849 15.664 43.2729 16.32 45.7049 16V14.752C44.2809 14.816 43.5769 14.912 43.5769 13.68V9.344H45.7049V8ZM54.1518 14.992C54.9678 14.176 55.3837 13.184 55.3837 12C55.3837 10.816 54.9678 9.824 54.1518 9.008C53.3358 8.192 52.3278 7.792 51.1598 7.792C49.9918 7.792 48.9838 8.192 48.1678 9.008C47.3518 9.824 46.9518 10.816 46.9518 12C46.9518 13.184 47.3518 14.176 48.1678 14.992C48.9838 15.808 49.9918 16.208 51.1598 16.208C52.3278 16.208 53.3358 15.808 54.1518 14.992ZM51.1598 14.848C50.3758 14.848 49.7038 14.576 49.1598 14.032C48.6158 13.488 48.3438 12.816 48.3438 12C48.3438 11.184 48.6158 10.512 49.1598 9.968C49.7038 9.424 50.3758 9.152 51.1598 9.152C51.9598 9.152 52.6318 9.424 53.1758 9.968C53.7198 10.512 53.9918 11.184 53.9918 12C53.9918 12.816 53.7198 13.488 53.1758 14.032C52.6318 14.576 51.9598 14.848 51.1598 14.848ZM64.7848 16.208C66.3368 16.208 67.6968 15.392 68.3848 14.128L67.2008 13.44C66.7528 14.288 65.8568 14.832 64.7848 14.832C63.9848 14.832 63.3128 14.56 62.7688 14.016C62.2408 13.472 61.9688 12.8 61.9688 12C61.9688 11.184 62.2408 10.512 62.7688 9.968C63.3128 9.424 63.9848 9.152 64.7848 9.152C65.8568 9.152 66.7528 9.712 67.1528 10.56L68.3208 9.888C67.6968 8.608 66.3688 7.792 64.7848 7.792C63.5848 7.792 62.5768 8.192 61.7768 9.008C60.9768 9.808 60.5768 10.8 60.5768 12C60.5768 13.2 60.9768 14.192 61.7768 15.008C62.5768 15.808 63.5848 16.208 64.7848 16.208ZM73.7588 7.792C72.5908 7.792 71.7268 8.24 71.1668 9.152V4.8H69.7747V16H71.1668V11.76C71.1668 9.968 72.0948 9.12 73.4868 9.12C74.7188 9.12 75.4708 9.872 75.4708 11.168V16H76.8628V11.088C76.8628 9.056 75.6308 7.792 73.7588 7.792ZM85.558 14.992C86.374 14.176 86.79 13.184 86.79 12C86.79 10.816 86.374 9.824 85.558 9.008C84.742 8.192 83.734 7.792 82.566 7.792C81.398 7.792 80.39 8.192 79.574 9.008C78.758 9.824 78.358 10.816 78.358 12C78.358 13.184 78.758 14.176 79.574 14.992C80.39 15.808 81.398 16.208 82.566 16.208C83.734 16.208 84.742 15.808 85.558 14.992ZM82.566 14.848C81.782 14.848 81.11 14.576 80.566 14.032C80.022 13.488 79.75 12.816 79.75 12C79.75 11.184 80.022 10.512 80.566 9.968C81.11 9.424 81.782 9.152 82.566 9.152C83.366 9.152 84.038 9.424 84.582 9.968C85.126 10.512 85.398 11.184 85.398 12C85.398 12.816 85.126 13.488 84.582 14.032C84.038 14.576 83.366 14.848 82.566 14.848ZM95.183 14.992C95.999 14.176 96.415 13.184 96.415 12C96.415 10.816 95.999 9.824 95.183 9.008C94.367 8.192 93.359 7.792 92.191 7.792C91.023 7.792 90.015 8.192 89.199 9.008C88.383 9.824 87.983 10.816 87.983 12C87.983 13.184 88.383 14.176 89.199 14.992C90.015 15.808 91.023 16.208 92.191 16.208C93.359 16.208 94.367 15.808 95.183 14.992ZM92.191 14.848C91.407 14.848 90.735 14.576 90.191 14.032C89.647 13.488 89.375 12.816 89.375 12C89.375 11.184 89.647 10.512 90.191 9.968C90.735 9.424 91.407 9.152 92.191 9.152C92.991 9.152 93.663 9.424 94.207 9.968C94.751 10.512 95.023 11.184 95.023 12C95.023 12.816 94.751 13.488 94.207 14.032C93.663 14.576 92.991 14.848 92.191 14.848ZM99.0841 10.16C99.0841 9.472 99.7241 9.088 100.508 9.088C101.356 9.088 101.932 9.424 102.22 10.112L103.388 9.456C102.876 8.416 101.804 7.792 100.508 7.792C99.6921 7.792 99.0201 8.016 98.4761 8.464C97.9481 8.912 97.6761 9.488 97.6761 10.176C97.6761 11.872 99.3081 12.288 100.572 12.624C101.452 12.832 102.156 13.184 102.156 13.808C102.156 14.56 101.484 14.896 100.572 14.896C99.5961 14.896 98.8441 14.416 98.5881 13.648L97.3881 14.336C97.8521 15.472 99.0201 16.208 100.572 16.208C101.452 16.208 102.156 15.984 102.716 15.552C103.276 15.12 103.564 14.528 103.564 13.808C103.58 12.096 101.916 11.632 100.668 11.36C99.7881 11.12 99.0841 10.784 99.0841 10.16ZM112.892 12.64C112.924 12.432 112.94 12.224 112.94 12.016C112.94 10.848 112.572 9.856 111.82 9.04C111.084 8.208 110.124 7.792 108.956 7.792C107.724 7.792 106.716 8.192 105.932 8.992C105.148 9.792 104.764 10.8 104.764 12C104.764 13.216 105.164 14.224 105.948 15.024C106.748 15.808 107.788 16.208 109.052 16.208C110.62 16.208 111.788 15.6 112.572 14.4L111.388 13.728C110.908 14.512 110.14 14.896 109.084 14.896C107.564 14.896 106.46 14.064 106.188 12.64H112.892ZM108.956 9.104C110.236 9.104 111.292 9.904 111.532 11.424H106.188C106.428 10.016 107.468 9.104 108.956 9.104ZM119.932 8H118.54V16H119.932V11.76C119.932 10.88 120.172 10.256 120.668 9.856C121.164 9.456 121.74 9.28 122.428 9.312V7.856C121.228 7.856 120.396 8.352 119.932 9.344V8ZM124.494 7.008C125.006 7.008 125.422 6.592 125.422 6.08C125.422 5.568 125.006 5.136 124.494 5.136C123.966 5.136 123.55 5.568 123.55 6.08C123.55 6.592 123.966 7.008 124.494 7.008ZM125.182 16V8H123.79V16H125.182ZM133.946 9.376C133.258 8.32 132.25 7.792 130.938 7.792C129.802 7.792 128.826 8.192 128.042 9.008C127.258 9.808 126.858 10.784 126.858 11.952C126.858 13.12 127.258 14.096 128.042 14.912C128.826 15.728 129.802 16.128 130.938 16.128C132.234 16.128 133.242 15.6 133.946 14.528V15.664C133.946 17.184 132.938 18.112 131.274 18.112C129.978 18.112 129.098 17.664 128.666 16.768L127.45 17.456C128.106 18.72 129.45 19.408 131.242 19.408C132.362 19.408 133.322 19.072 134.122 18.416C134.922 17.76 135.322 16.848 135.322 15.664V8H133.946V9.376ZM133.946 11.952C133.946 12.768 133.674 13.44 133.13 13.984C132.586 14.528 131.914 14.8 131.098 14.8C130.282 14.8 129.61 14.528 129.066 13.984C128.522 13.44 128.25 12.768 128.25 11.952C128.25 11.152 128.522 10.48 129.066 9.936C129.61 9.392 130.282 9.12 131.098 9.12C131.914 9.12 132.586 9.392 133.13 9.936C133.674 10.48 133.946 11.152 133.946 11.952ZM141.415 7.792C140.247 7.792 139.383 8.24 138.823 9.152V4.8H137.431V16H138.823V11.76C138.823 9.968 139.751 9.12 141.143 9.12C142.375 9.12 143.127 9.872 143.127 11.168V16H144.519V11.088C144.519 9.056 143.287 7.792 141.415 7.792ZM150.814 8H148.686V5.76L147.294 6.176V8H145.71V9.344H147.294V13.68C147.294 15.664 148.382 16.32 150.814 16V14.752C149.39 14.816 148.686 14.912 148.686 13.68V9.344H150.814V8ZM160.925 7.792C159.597 7.792 158.589 8.32 157.901 9.376V8H156.509V19.2H157.901V14.624C158.589 15.68 159.597 16.208 160.925 16.208C162.045 16.208 163.005 15.808 163.789 14.992C164.573 14.176 164.973 13.168 164.973 12C164.973 10.832 164.573 9.84 163.789 9.024C163.005 8.208 162.045 7.792 160.925 7.792ZM160.749 14.864C159.933 14.864 159.261 14.592 158.717 14.048C158.173 13.488 157.901 12.816 157.901 12C157.901 11.184 158.173 10.512 158.717 9.968C159.261 9.408 159.933 9.136 160.749 9.136C161.549 9.136 162.221 9.408 162.765 9.968C163.309 10.512 163.581 11.184 163.581 12C163.581 12.816 163.309 13.488 162.765 14.048C162.221 14.592 161.549 14.864 160.749 14.864ZM168.026 8H166.634V16H168.026V11.76C168.026 10.88 168.266 10.256 168.762 9.856C169.258 9.456 169.834 9.28 170.522 9.312V7.856C169.322 7.856 168.49 8.352 168.026 9.344V8ZM178.636 14.992C179.452 14.176 179.868 13.184 179.868 12C179.868 10.816 179.452 9.824 178.636 9.008C177.82 8.192 176.812 7.792 175.644 7.792C174.476 7.792 173.468 8.192 172.652 9.008C171.836 9.824 171.436 10.816 171.436 12C171.436 13.184 171.836 14.176 172.652 14.992C173.468 15.808 174.476 16.208 175.644 16.208C176.812 16.208 177.82 15.808 178.636 14.992ZM175.644 14.848C174.86 14.848 174.188 14.576 173.644 14.032C173.1 13.488 172.828 12.816 172.828 12C172.828 11.184 173.1 10.512 173.644 9.968C174.188 9.424 174.86 9.152 175.644 9.152C176.444 9.152 177.116 9.424 177.66 9.968C178.204 10.512 178.476 11.184 178.476 12C178.476 12.816 178.204 13.488 177.66 14.032C177.116 14.576 176.444 14.848 175.644 14.848ZM188.133 9.376C187.445 8.32 186.437 7.792 185.109 7.792C183.989 7.792 183.029 8.208 182.245 9.024C181.461 9.84 181.061 10.832 181.061 12C181.061 13.168 181.461 14.176 182.245 14.992C183.029 15.808 183.989 16.208 185.109 16.208C186.437 16.208 187.445 15.68 188.133 14.624V16H189.525V4.8H188.133V9.376ZM185.285 14.864C184.485 14.864 183.813 14.592 183.269 14.048C182.725 13.488 182.453 12.816 182.453 12C182.453 11.184 182.725 10.512 183.269 9.968C183.813 9.408 184.485 9.136 185.285 9.136C186.101 9.136 186.773 9.408 187.317 9.968C187.861 10.512 188.133 11.184 188.133 12C188.133 12.816 187.861 13.488 187.317 14.048C186.773 14.592 186.101 14.864 185.285 14.864ZM197.154 12.24C197.154 14.032 196.226 14.88 194.834 14.88C193.602 14.88 192.85 14.128 192.85 12.832V8H191.458V12.912C191.458 14.944 192.69 16.208 194.562 16.208C195.73 16.208 196.594 15.76 197.154 14.848V16H198.546V8H197.154V12.24ZM204.425 16.208C205.977 16.208 207.337 15.392 208.025 14.128L206.841 13.44C206.393 14.288 205.497 14.832 204.425 14.832C203.625 14.832 202.953 14.56 202.409 14.016C201.881 13.472 201.609 12.8 201.609 12C201.609 11.184 201.881 10.512 202.409 9.968C202.953 9.424 203.625 9.152 204.425 9.152C205.497 9.152 206.393 9.712 206.793 10.56L207.961 9.888C207.337 8.608 206.009 7.792 204.425 7.792C203.225 7.792 202.217 8.192 201.417 9.008C200.617 9.808 200.217 10.8 200.217 12C200.217 13.2 200.617 14.192 201.417 15.008C202.217 15.808 203.225 16.208 204.425 16.208ZM213.752 8H211.624V5.76L210.232 6.176V8H208.648V9.344H210.232V13.68C210.232 15.664 211.32 16.32 213.752 16V14.752C212.328 14.816 211.624 14.912 211.624 13.68V9.344H213.752V8ZM216.209 10.16C216.209 9.472 216.849 9.088 217.633 9.088C218.481 9.088 219.057 9.424 219.345 10.112L220.513 9.456C220.001 8.416 218.929 7.792 217.633 7.792C216.817 7.792 216.145 8.016 215.601 8.464C215.073 8.912 214.801 9.488 214.801 10.176C214.801 11.872 216.433 12.288 217.697 12.624C218.577 12.832 219.281 13.184 219.281 13.808C219.281 14.56 218.609 14.896 217.697 14.896C216.721 14.896 215.969 14.416 215.713 13.648L214.513 14.336C214.977 15.472 216.145 16.208 217.697 16.208C218.577 16.208 219.281 15.984 219.841 15.552C220.401 15.12 220.689 14.528 220.689 13.808C220.705 12.096 219.041 11.632 217.793 11.36C216.913 11.12 216.209 10.784 216.209 10.16ZM230.449 4.592C228.193 4.448 226.945 5.6 226.945 7.76V8H225.665V9.344H226.945V16H228.337V9.344H230.449V8H228.337V7.76C228.337 6.432 229.041 5.824 230.449 5.936V4.592ZM238.261 14.992C239.077 14.176 239.493 13.184 239.493 12C239.493 10.816 239.077 9.824 238.261 9.008C237.445 8.192 236.437 7.792 235.269 7.792C234.101 7.792 233.093 8.192 232.277 9.008C231.461 9.824 231.061 10.816 231.061 12C231.061 13.184 231.461 14.176 232.277 14.992C233.093 15.808 234.101 16.208 235.269 16.208C236.437 16.208 237.445 15.808 238.261 14.992ZM235.269 14.848C234.485 14.848 233.813 14.576 233.269 14.032C232.725 13.488 232.453 12.816 232.453 12C232.453 11.184 232.725 10.512 233.269 9.968C233.813 9.424 234.485 9.152 235.269 9.152C236.069 9.152 236.741 9.424 237.285 9.968C237.829 10.512 238.101 11.184 238.101 12C238.101 12.816 237.829 13.488 237.285 14.032C236.741 14.576 236.069 14.848 235.269 14.848ZM242.526 8H241.134V16H242.526V11.76C242.526 10.88 242.766 10.256 243.262 9.856C243.758 9.456 244.334 9.28 245.022 9.312V7.856C243.822 7.856 242.99 8.352 242.526 9.344V8ZM253.664 14.272L250.944 8H249.456L252.944 15.968L252.8 16.272C252.336 17.44 251.616 17.984 250.64 17.904V19.2C252.24 19.312 253.504 18.304 254.192 16.496L257.456 8H255.968L253.664 14.272ZM265.371 14.992C266.187 14.176 266.602 13.184 266.602 12C266.602 10.816 266.187 9.824 265.371 9.008C264.555 8.192 263.547 7.792 262.379 7.792C261.211 7.792 260.203 8.192 259.387 9.008C258.571 9.824 258.171 10.816 258.171 12C258.171 13.184 258.571 14.176 259.387 14.992C260.203 15.808 261.211 16.208 262.379 16.208C263.547 16.208 264.555 15.808 265.371 14.992ZM262.379 14.848C261.595 14.848 260.923 14.576 260.379 14.032C259.835 13.488 259.562 12.816 259.562 12C259.562 11.184 259.835 10.512 260.379 9.968C260.923 9.424 261.595 9.152 262.379 9.152C263.179 9.152 263.851 9.424 264.395 9.968C264.939 10.512 265.211 11.184 265.211 12C265.211 12.816 264.939 13.488 264.395 14.032C263.851 14.576 263.179 14.848 262.379 14.848ZM273.764 12.24C273.764 14.032 272.836 14.88 271.444 14.88C270.212 14.88 269.46 14.128 269.46 12.832V8H268.068V12.912C268.068 14.944 269.299 16.208 271.172 16.208C272.34 16.208 273.204 15.76 273.764 14.848V16H275.156V8H273.764V12.24ZM278.667 8H277.275V16H278.667V11.76C278.667 10.88 278.907 10.256 279.403 9.856C279.899 9.456 280.475 9.28 281.163 9.312V7.856C279.963 7.856 279.131 8.352 278.667 9.344V8ZM290.941 7.792C289.613 7.792 288.605 8.32 287.917 9.376V8H286.525V19.2H287.917V14.624C288.605 15.68 289.613 16.208 290.941 16.208C292.061 16.208 293.021 15.808 293.805 14.992C294.589 14.176 294.989 13.168 294.989 12C294.989 10.832 294.589 9.84 293.805 9.024C293.021 8.208 292.061 7.792 290.941 7.792ZM290.765 14.864C289.949 14.864 289.277 14.592 288.733 14.048C288.189 13.488 287.917 12.816 287.917 12C287.917 11.184 288.189 10.512 288.733 9.968C289.277 9.408 289.949 9.136 290.765 9.136C291.565 9.136 292.237 9.408 292.781 9.968C293.325 10.512 293.597 11.184 293.597 12C293.597 12.816 293.325 13.488 292.781 14.048C292.237 14.592 291.565 14.864 290.765 14.864ZM304.33 12.64C304.362 12.432 304.378 12.224 304.378 12.016C304.378 10.848 304.01 9.856 303.258 9.04C302.522 8.208 301.562 7.792 300.394 7.792C299.162 7.792 298.154 8.192 297.37 8.992C296.586 9.792 296.202 10.8 296.202 12C296.202 13.216 296.602 14.224 297.386 15.024C298.186 15.808 299.226 16.208 300.49 16.208C302.058 16.208 303.226 15.6 304.01 14.4L302.826 13.728C302.346 14.512 301.578 14.896 300.522 14.896C299.002 14.896 297.898 14.064 297.626 12.64H304.33ZM300.394 9.104C301.674 9.104 302.73 9.904 302.97 11.424H297.626C297.866 10.016 298.906 9.104 300.394 9.104ZM310.096 8H307.968V5.76L306.576 6.176V8H304.992V9.344H306.576V13.68C306.576 15.664 307.664 16.32 310.096 16V14.752C308.672 14.816 307.968 14.912 307.968 13.68V9.344H310.096V8ZM312.553 10.16C312.553 9.472 313.193 9.088 313.977 9.088C314.825 9.088 315.401 9.424 315.689 10.112L316.857 9.456C316.345 8.416 315.273 7.792 313.977 7.792C313.161 7.792 312.489 8.016 311.945 8.464C311.417 8.912 311.145 9.488 311.145 10.176C311.145 11.872 312.777 12.288 314.041 12.624C314.921 12.832 315.625 13.184 315.625 13.808C315.625 14.56 314.953 14.896 314.041 14.896C313.065 14.896 312.313 14.416 312.057 13.648L310.857 14.336C311.321 15.472 312.489 16.208 314.041 16.208C314.921 16.208 315.625 15.984 316.185 15.552C316.745 15.12 317.033 14.528 317.033 13.808C317.049 12.096 315.385 11.632 314.137 11.36C313.257 11.12 312.553 10.784 312.553 10.16ZM321.44 12.72C321.44 11.552 322.512 10.736 323.344 9.904C323.92 9.328 324.384 8.512 324.384 7.616C324.384 6.672 324.048 5.92 323.36 5.392C322.688 4.864 321.872 4.592 320.928 4.592C319.312 4.592 317.92 5.392 317.392 6.88L318.656 7.584C318.992 6.544 319.744 6.032 320.912 6.032C322.08 6.032 322.896 6.608 322.896 7.68C322.896 8.784 321.824 9.536 320.992 10.368C320.416 10.944 319.952 11.776 319.952 12.72H321.44ZM320.688 16.176C321.28 16.176 321.728 15.712 321.728 15.136C321.728 14.56 321.28 14.096 320.688 14.096C320.112 14.096 319.648 14.56 319.648 15.136C319.648 15.712 320.112 16.176 320.688 16.176Z" fill="black"/>
<path d="M15.696 48.816C17.4 47.112 18.24 45.048 18.24 42.6C18.24 40.152 17.4 38.088 15.696 36.408C13.992 34.704 11.928 33.864 9.504 33.864C7.08 33.864 5.016 34.704 3.312 36.408C1.632 38.088 0.792 40.152 0.792 42.6C0.792 45.048 1.632 47.112 3.312 48.816C5.016 50.496 7.08 51.336 9.504 51.336C11.928 51.336 13.992 50.496 15.696 48.816ZM5.64 46.56C4.608 45.528 4.08 44.208 4.08 42.6C4.08 40.992 4.608 39.672 5.64 38.64C6.672 37.608 7.968 37.08 9.504 37.08C11.04 37.08 12.336 37.608 13.368 38.64C14.4 39.672 14.928 40.992 14.928 42.6C14.928 44.208 14.4 45.528 13.368 46.56C12.336 47.592 11.04 48.096 9.504 48.096C7.968 48.096 6.672 47.592 5.64 46.56ZM28.3438 45.48C28.3438 47.472 27.3118 48.456 25.7038 48.456C24.2638 48.456 23.3278 47.592 23.3278 45.984V39H20.2318V46.368C20.2318 47.928 20.6638 49.128 21.5038 50.016C22.3678 50.904 23.4478 51.336 24.7678 51.336C26.3998 51.336 27.5998 50.784 28.3438 49.656V51H31.4398V39H28.3438V45.48ZM37.3714 39H34.2754V51H37.3714V45.264C37.3714 44.112 37.7314 43.296 38.4754 42.792C39.2194 42.288 40.0834 42.096 41.0194 42.216V38.76C39.3874 38.76 37.9474 39.528 37.3714 41.064V39ZM48.9741 34.2V51H52.2861V45.48H55.2381C56.8461 45.48 58.2141 44.928 59.3181 43.848C60.4221 42.768 60.9741 41.424 60.9741 39.84C60.9741 38.256 60.4221 36.912 59.3181 35.832C58.2141 34.752 56.8461 34.2 55.2381 34.2H48.9741ZM52.2861 42.384V37.296H55.2381C56.6541 37.296 57.6861 38.376 57.6861 39.84C57.6861 41.28 56.6541 42.384 55.2381 42.384H52.2861ZM65.8245 39H62.7285V51H65.8245V45.264C65.8245 44.112 66.1845 43.296 66.9285 42.792C67.6725 42.288 68.5365 42.096 69.4725 42.216V38.76C67.8405 38.76 66.4005 39.528 65.8245 41.064V39ZM81.5072 49.512C82.7312 48.288 83.3552 46.776 83.3552 45C83.3552 43.224 82.7312 41.736 81.5072 40.512C80.2832 39.288 78.7712 38.664 76.9952 38.664C75.2192 38.664 73.7072 39.288 72.4832 40.512C71.2592 41.736 70.6592 43.224 70.6592 45C70.6592 46.776 71.2592 48.288 72.4832 49.512C73.7072 50.736 75.2192 51.336 76.9952 51.336C78.7712 51.336 80.2832 50.736 81.5072 49.512ZM74.6672 47.376C74.0672 46.752 73.7552 45.96 73.7552 45C73.7552 44.04 74.0672 43.248 74.6672 42.624C75.2912 42 76.0592 41.688 76.9952 41.688C77.9312 41.688 78.6992 42 79.3232 42.624C79.9472 43.248 80.2592 44.04 80.2592 45C80.2592 45.96 79.9472 46.752 79.3232 47.376C78.6992 48 77.9312 48.312 76.9952 48.312C76.0592 48.312 75.2912 48 74.6672 47.376ZM94.6292 40.416C93.7172 39.24 92.4212 38.664 90.7412 38.664C89.1332 38.664 87.7412 39.288 86.5892 40.512C85.4612 41.736 84.8852 43.224 84.8852 45C84.8852 46.776 85.4612 48.288 86.5892 49.512C87.7412 50.736 89.1332 51.336 90.7412 51.336C92.4212 51.336 93.7172 50.76 94.6292 49.584V51H97.7252V34.2H94.6292V40.416ZM88.9172 47.448C88.2932 46.8 87.9812 45.984 87.9812 45C87.9812 44.016 88.2932 43.2 88.9172 42.576C89.5652 41.928 90.3572 41.616 91.3172 41.616C92.2772 41.616 93.0692 41.928 93.6932 42.576C94.3172 43.2 94.6292 44.016 94.6292 45C94.6292 45.984 94.3172 46.8 93.6932 47.448C93.0692 48.072 92.2772 48.384 91.3172 48.384C90.3572 48.384 89.5652 48.072 88.9172 47.448ZM108.477 45.48C108.477 47.472 107.445 48.456 105.837 48.456C104.397 48.456 103.461 47.592 103.461 45.984V39H100.365V46.368C100.365 47.928 100.797 49.128 101.637 50.016C102.501 50.904 103.581 51.336 104.901 51.336C106.533 51.336 107.733 50.784 108.477 49.656V51H111.573V39H108.477V45.48ZM120.12 51.336C122.448 51.336 124.488 50.112 125.544 48.216L122.856 46.68C122.376 47.664 121.344 48.264 120.096 48.264C119.16 48.264 118.392 47.952 117.792 47.352C117.192 46.728 116.88 45.936 116.88 45C116.88 43.08 118.248 41.712 120.096 41.712C121.32 41.712 122.352 42.336 122.832 43.32L125.496 41.76C124.512 39.864 122.448 38.664 120.12 38.664C118.32 38.664 116.808 39.264 115.584 40.488C114.384 41.712 113.784 43.2 113.784 45C113.784 46.8 114.384 48.288 115.584 49.512C116.808 50.736 118.32 51.336 120.12 51.336ZM134.046 39H131.334V35.64L128.238 36.576V39H126.15V41.976H128.238V46.968C128.238 50.256 129.798 51.48 134.046 51V48.192C132.27 48.288 131.334 48.264 131.334 46.968V41.976H134.046V39ZM138.827 42.408C138.827 41.808 139.427 41.424 140.219 41.424C141.107 41.424 141.755 41.832 142.139 42.648L144.779 41.208C143.843 39.576 142.163 38.664 140.219 38.664C138.923 38.664 137.843 39 136.955 39.696C136.091 40.368 135.659 41.304 135.659 42.48C135.659 44.976 137.891 45.72 139.667 46.176C140.891 46.488 141.851 46.848 141.851 47.496C141.851 48.192 141.299 48.528 140.195 48.528C138.971 48.528 138.203 48 137.843 46.968L135.155 48.48C136.043 50.376 137.723 51.336 140.195 51.336C141.563 51.336 142.715 51 143.627 50.352C144.563 49.68 145.019 48.72 145.019 47.496C145.043 44.928 142.763 44.088 141.011 43.728C139.787 43.416 138.827 43.056 138.827 42.408Z" fill="#003459"/>
</svg>
